<?xml version="1.0" encoding="UTF-8" standalone="no"?>
<!-- Created with Inkscape (http://www.inkscape.org/) -->

<svg
   xmlns:dc="http://purl.org/dc/elements/1.1/"
   xmlns:cc="http://creativecommons.org/ns#"
   xmlns:rdf="http://www.w3.org/1999/02/22-rdf-syntax-ns#"
   xmlns:svg="http://www.w3.org/2000/svg"
   xmlns="http://www.w3.org/2000/svg"
   xmlns:sodipodi="http://sodipodi.sourceforge.net/DTD/sodipodi-0.dtd"
   xmlns:inkscape="http://www.inkscape.org/namespaces/inkscape"
   id="svg4190"
   version="1.1"
   inkscape:version="0.91 r13725"
   width="296.25"
   height="397.5"
   viewBox="0 0 296.25 397.5"
   sodipodi:docname="hair_logo_cutout.svg">
  <metadata
     id="metadata4196">
    <rdf:RDF>
      <cc:Work
         rdf:about="">
        <dc:format>image/svg+xml</dc:format>
        <dc:type
           rdf:resource="http://purl.org/dc/dcmitype/StillImage" />
      </cc:Work>
    </rdf:RDF>
  </metadata>
  <defs
     id="defs4194">
    <inkscape:path-effect
       effect="spiro"
       id="path-effect4234"
       is_visible="true" />
    <inkscape:path-effect
       is_visible="true"
       id="path-effect4150"
       effect="spiro" />
    <inkscape:path-effect
       effect="spiro"
       id="path-effect4145"
       is_visible="true" />
  </defs>
  <sodipodi:namedview
     pagecolor="#ffffff"
     bordercolor="#666666"
     borderopacity="1"
     objecttolerance="10"
     gridtolerance="10"
     guidetolerance="10"
     inkscape:pageopacity="0"
     inkscape:pageshadow="2"
     inkscape:window-width="1177"
     inkscape:window-height="816"
     id="namedview4192"
     showgrid="false"
     inkscape:zoom="1.0000001"
     inkscape:cx="115.41258"
     inkscape:cy="206.81395"
     inkscape:window-x="149"
     inkscape:window-y="4"
     inkscape:window-maximized="0"
     inkscape:current-layer="g4303" />
  <g
     id="g4303"
     transform="translate(5.6568535,-2.1213203)">
    <g
       id="g4707"
       inkscape:export-xdpi="300.06"
       inkscape:export-ydpi="300.06"
       style="fill:#aaaaaa;fill-opacity:1">
      <path
         id="path4219"
         transform="translate(-5.6568535,2.1213203)"
         d="M 139.32617 72.878906 L 138.0957 73.048828 L 137.28125 73.369141 L 136.45508 73.986328 L 134.76562 75.386719 L 126.72461 75.070312 L 122.16016 74.890625 L 118.86133 75.107422 L 116.50586 76.486328 L 112.2168 79.898438 L 105.75 85.044922 L 100.75195 85.84375 L 98.294922 86.236328 L 95.929688 86.996094 L 94.253906 88.558594 L 92.267578 91.101562 C 90.350789 93.55331 86.650544 96.665968 84.044922 98.019531 L 79.306641 100.48047 L 77.972656 103.86719 C 77.238677 105.72981 75.710583 108.11609 75.494141 109.4707 L 75.099609 111.93555 L 75.744141 114.29102 L 77.138672 116.89648 L 75.773438 118.26367 C 75.022244 119.01486 74.40625 120.64141 74.40625 121.87891 C 74.40625 123.11641 73.922092 124.12891 73.330078 124.12891 C 72.738063 124.12891 71.944721 127.36328 71.566406 131.31641 C 71.18809 135.26953 68.836701 140.92233 68.203125 144.45508 C 67.481527 148.47863 67.135826 151.73793 67.574219 152.44727 C 68.832563 171.11801 69.102346 185.10466 70.214844 200.18555 C 70.315994 202.01053 70.74395 207.72266 71.164062 212.87891 C 71.584176 218.03516 71.963268 225.88153 72.007812 230.31641 L 72.089844 238.38086 L 73.826172 241.56641 L 75.5625 244.75391 L 74.693359 239.12891 C 74.214734 236.03516 73.833583 227.31641 73.845703 219.75391 L 73.867188 206.00391 L 76.564453 190.04688 L 79.263672 174.0918 L 81.882812 170.41016 L 83.878906 166.73047 L 85.041016 162.7832 L 85.642578 156.75391 L 86.78125 146.77734 L 89.238281 141.95898 C 92.3757 135.80914 101.21878 127.64717 108.98047 123.73828 L 115.03125 120.69141 L 131.90625 119.13086 L 148.78125 117.57227 L 160.86523 118.88867 L 172.94922 120.20703 L 179.61523 123.30469 C 183.28146 125.00813 189.21426 126.78474 192.79883 127.25195 L 199.31641 128.10156 L 203.86133 133.13086 C 206.36078 135.89744 209.40511 140.51456 210.75391 143.33203 L 212.61523 147.22266 L 213.1582 151.16211 L 213.12891 156.43555 L 213.14453 160.80859 L 213.45898 164.16602 L 214.85547 167.68555 C 220.4224 178.55801 223.19015 186.18635 225.73242 197.65625 L 228.59375 210.55664 L 228.05664 222.03125 C 227.73562 228.9102 225.37991 237.95635 223.2832 244.72266 L 221.05078 251.92578 L 217.98438 258.0625 L 213.76172 262.73633 C 208.72765 268.30846 197.95377 274.45917 194.20117 273.90234 L 191.51953 273.50391 L 189.82422 268.58594 C 188.89162 265.88154 187.19921 262.64082 186.0625 261.38477 C 183.48776 258.53973 170.8389 254.55589 160.76367 253.41602 L 157.9375 253.0957 L 153.77148 252.9082 L 150.86328 253.19531 L 147.67383 254.08789 L 142.19727 255.62305 L 139.6582 254.26172 C 138.26103 253.51398 131.30387 252.75674 124.19922 252.57812 L 114.50977 252.33398 L 111.78125 252.75391 L 109.41797 253.56055 L 105.65625 256.19727 C 102.5625 258.36601 98.093849 262.16288 95.724609 264.63477 L 91.416016 269.12891 L 87.287109 269.12891 L 83.15625 269.12891 L 83.15625 267.17969 C 83.15625 266.10787 82.652569 265.54148 82.037109 265.92188 C 80.693847 266.75205 79.103262 263.13094 80.101562 261.51562 C 80.488118 260.89017 80.270826 260.37891 79.619141 260.37891 C 78.967456 260.37891 78.460273 259.67578 78.492188 258.81641 C 78.524096 257.95703 78.461818 255.95464 78.353516 254.36719 L 78.15625 251.48047 L 76.738281 252.35742 L 75.320312 253.23438 L 75.896484 249.30664 L 76.474609 245.37891 L 74.886719 245.37891 L 73.300781 245.37891 L 73.777344 247.85156 C 74.039361 249.21211 73.800734 250.60568 73.248047 250.94727 C 72.695358 251.28884 73.013184 256.38168 73.955078 262.26367 L 75.667969 272.95703 L 80.634766 282.83594 C 83.366469 288.26903 88.251902 295.98596 91.490234 299.98438 C 100.92662 311.6356 114.59466 326.42772 116.77344 327.3457 C 117.87758 327.8109 122.4375 329.54959 126.90625 331.21094 L 131.15625 332.79102 L 135.40625 333.98242 L 140.99023 333.84375 L 146.63086 333.47656 C 159.46447 332.64133 169.01753 330.26082 175.65625 326.24219 C 181.6899 322.58985 194.54175 311.64774 205.2207 301.07031 L 214.16016 292.21484 L 219.07227 282.85938 L 223.98242 273.50391 L 226.1582 262.25391 C 227.35449 256.06641 229.46076 246.22266 230.83789 240.37891 C 232.21501 234.53516 233.80267 225.43347 234.36719 220.1543 L 235.39453 210.55664 C 235.76994 208.18261 236.05292 205.98166 236.10352 204.17969 C 236.22442 199.90792 236.48615 195.63173 236.64844 191.36133 C 236.81184 187.0617 236.75987 183.1377 236.76367 178.96289 C 236.76767 174.50349 237.08742 170.04411 236.98242 165.58594 C 236.88402 161.41196 236.00704 157.11661 235.72266 152.95117 C 235.43158 148.68767 235.10674 144.42823 234.77148 140.16797 C 234.51794 136.94611 234.25845 133.72343 233.89844 130.51172 C 233.81434 129.76123 233.7104 129.01284 233.61523 128.26367 L 232.63477 125.97461 L 229.29297 122.13672 L 225.44922 118.17188 L 225.81055 115.83789 C 226.30476 112.62938 223.57883 108.86522 216.88867 101.71289 L 211.20898 95.640625 L 206.43945 92.529297 L 201.00195 89.566406 C 189.14438 83.102844 178.72436 79.500422 166.90625 77.779297 C 155.00875 76.046608 145.50241 74.418568 141.58789 73.443359 L 139.32617 72.878906 z M 141.21875 75.466797 C 142.80227 75.439567 144.40149 75.808774 145.62109 76.580078 C 148.30715 78.278799 146.76968 79.022047 143.28906 77.707031 C 141.64254 77.084961 139.11129 76.905102 137.66406 77.308594 L 135.03125 78.042969 L 136.90625 76.730469 C 138.06636 75.918241 139.63523 75.494028 141.21875 75.466797 z M 118.86133 77.208984 C 119.70827 77.251484 120.65625 77.722558 120.65625 78.369141 C 120.65625 78.557734 119.83694 78.712891 118.83594 78.712891 C 117.83493 78.712891 117.31282 78.234522 117.67383 77.650391 C 117.88251 77.31274 118.35316 77.183486 118.86133 77.208984 z M 113.42188 82.970703 C 113.58378 82.975503 113.71824 83.022923 113.81445 83.119141 C 114.19931 83.504 113.50622 84.204414 112.27344 84.673828 L 110.03125 85.527344 L 111.57422 83.972656 C 112.21015 83.331952 112.93609 82.956403 113.42188 82.970703 z M 96.28125 89.753906 L 94.447266 92.253906 C 93.438681 93.628906 92.454306 94.988932 92.259766 95.275391 C 92.065224 95.561848 91.90625 95.208131 91.90625 94.490234 C 91.90625 93.772331 92.890625 92.412305 94.09375 91.46875 L 96.28125 89.753906 z M 114.28711 264.12891 L 119.03516 264.13477 C 121.64612 264.13877 125.75 264.66421 128.15625 265.30078 C 130.5625 265.93734 141.24474 266.80054 151.89453 267.2207 L 171.25781 267.98438 L 174.08203 269.83594 C 177.35144 271.97814 177.56776 273.87626 175.18945 279.56836 L 173.47266 283.67773 L 165.99805 286.4043 C 161.88755 287.90306 157.17746 289.1142 155.5293 289.0957 L 152.53125 289.06055 L 156.7832 285.53516 L 161.03516 282.00977 L 159.7793 281.23438 C 159.08903 280.80775 154.41946 279.8214 149.40234 279.04297 L 140.28125 277.62695 L 132.61523 278.44922 C 128.39985 278.90064 124.12644 279.80735 123.11719 280.46484 L 121.28125 281.66016 L 125.35547 285.08203 C 127.59604 286.964 129.42397 288.92578 129.41797 289.44141 C 129.40327 290.66518 124.4683 290.50645 121.28125 289.17969 C 119.90625 288.60729 116.07714 285.63611 112.77148 282.57812 L 106.76172 277.01953 L 107.58203 273.74805 C 108.03346 271.94941 109.72743 269.04887 111.3457 267.30273 L 114.28711 264.12891 z "
         style="fill:#aaaaaa;fill-opacity:1" />
      <path
         sodipodi:nodetypes="ccccsccccccccccc"
         inkscape:connector-curvature="0"
         id="path4209"
         d="m 174.07167,179.59314 -9.84766,0.26646 c -5.41645,0.82699 -11.39649,1.80443 -13.28711,2.17188 l -2.20006,1.19829 -1.23744,2.39155 c -0.73891,1.42805 0.35465,3.84567 0.78711,4.97266 l 1.28516,1.54882 1.52734,-0.34375 c 1.11441,-0.46404 9.66228,-1.42472 18.99609,-2.13671 l 15.09571,-0.66993 7.87304,1.41797 c 3.2989,1.12405 6.4922,1.73823 7.09571,1.36524 l 1.09765,-0.67774 -1.2207,-2.28125 c -1.93476,-3.61514 -8.87148,-7.06298 -17.76172,-8.83008 z"
         style="fill:#aaaaaa;fill-opacity:1" />
      <path
         sodipodi:nodetypes="ccccsccccccccccc"
         inkscape:connector-curvature="0"
         style="fill:#aaaaaa;fill-opacity:1"
         d="m 107.53882,178.55356 9.06511,0.7451 c 4.95017,1.08932 10.41203,2.35628 12.13575,2.81519 l 2.30533,1.15339 0.67476,2.59867 c 0.40244,1.54992 -0.52959,3.82308 -0.98768,4.92747 l -1.08968,1.1306 -1.56682,-0.064 c -1.00299,-0.51761 -8.83316,-1.89274 -17.40104,-3.05777 l -13.882344,-1.40329 -7.333323,1.03303 c -3.10068,0.96203 -6.077131,1.42002 -6.61389,1.01819 l -0.976282,-0.73019 1.245627,-2.2187 c 1.974237,-3.51601 8.551272,-6.62164 16.840814,-7.95384 z"
         id="path4226" />
    </g>
    <g
       id="g4668"
       inkscape:export-xdpi="300.06"
       inkscape:export-ydpi="300.06"
       style="fill:#777777;fill-opacity:1">
      <path
         id="path4438"
         d="m 134.29042,75.646711 -1.93946,0.74414 c -1.06697,0.409435 -1.9414,0.966133 -1.9414,1.236328 0,1.012392 2.38311,0.443614 3.11718,-0.74414 z"
         style="fill:#777777;fill-opacity:1" />
      <path
         id="path4436"
         d="m 122.4994,77.662336 c -0.56641,0 -1.13281,0.08638 -1.5625,0.259765 -0.85937,0.346766 -0.15625,0.63086 1.5625,0.63086 1.71875,0 2.42188,-0.284094 1.5625,-0.63086 -0.42969,-0.173382 -0.99609,-0.259765 -1.5625,-0.259765 z"
         style="fill:#777777;fill-opacity:1" />
      <path
         id="path4434"
         d="m 110.30213,79.551008 -5.46484,4.214843 c -3.0048,2.318553 -5.695963,4.388472 -5.982424,4.59961 -0.28646,0.211136 0.0653,0.384765 0.7832,0.384765 0.717904,0 2.005474,-0.84375 2.861334,-1.875 0.85586,-1.03125 2.19683,-1.875 2.97852,-1.875 0.7817,0 2.18725,-1.226168 3.12304,-2.724609 z"
         style="fill:#777777;fill-opacity:1" />
      <path
         id="path4432"
         transform="translate(-5.6568535,2.1213203)"
         d="M 150.03125 78.761719 L 151.28125 79.966797 C 151.96875 80.6297 157.08565 84.906527 162.65039 89.470703 C 174.54658 99.22789 181.90625 107.06056 181.90625 109.96094 L 181.90625 112.03516 L 176.82227 104.93555 C 174.0259 101.03047 171.30328 98.104924 170.77148 98.433594 C 170.23968 98.762264 168.66246 97.506207 167.26562 95.642578 C 165.86881 93.778949 162.82578 91.175168 160.50391 89.857422 L 156.28125 87.460938 L 158.78125 90.419922 L 161.28125 93.378906 L 155.65625 88.910156 C 150.04147 84.448727 143.01616 80.378906 140.92773 80.378906 C 137.97642 80.378906 140.41366 84.267065 145.30273 87.357422 C 148.31643 89.262361 151.15485 91.424254 151.60938 92.162109 C 152.06387 92.899964 151.05154 92.625775 149.35938 91.552734 C 140.10632 85.685148 136.90625 84.053749 136.90625 85.201172 L 136.90625 86.476562 L 131.21484 84.537109 C 128.08383 83.470269 125.17693 82.942208 124.75586 83.363281 C 124.33479 83.784353 124.81586 84.128906 125.82617 84.128906 C 129.09008 84.128906 147.39951 93.749007 151.90625 97.832031 L 156.28125 101.79492 L 150.43164 97.962891 C 144.52587 94.092941 129.26684 86.616981 127.33008 86.644531 C 126.75378 86.652731 129.58585 88.495983 133.62305 90.742188 C 137.66027 92.988388 140.75402 95.14522 140.49805 95.535156 C 140.2421 95.925091 140.85869 97.316211 141.86914 98.625 L 143.70703 101.00391 L 140.61914 98.345703 C 138.92119 96.884147 132.46875 93.365705 126.28125 90.527344 L 115.03125 85.367188 L 118.15625 87.853516 C 119.875 89.221068 125.61795 92.615803 130.91797 95.396484 C 136.218 98.17717 140.89226 100.9987 141.30469 101.66602 C 142.50424 103.60694 141.17283 103.11938 134.44141 99.150391 C 130.96288 97.099386 126.78905 95.179432 125.16406 94.884766 C 123.53908 94.5901 120.39109 93.40838 118.16992 92.259766 L 114.13086 90.171875 L 115.08008 91.707031 L 116.0293 93.244141 L 113.03125 92.554688 C 111.38183 92.175988 108.99482 92.260034 107.72656 92.742188 L 105.41992 93.619141 L 108.97656 95.287109 L 112.53125 96.957031 L 110.92188 97.537109 L 109.31055 98.119141 L 118.42188 104.35938 C 123.43268 107.79169 128.09375 111.21858 128.78125 111.97461 C 129.46875 112.73065 128.625 112.40254 126.90625 111.24609 C 125.1875 110.08964 119.84375 106.89752 115.03125 104.15234 L 106.28125 99.162109 L 102.21875 99.144531 C 99.984375 99.135531 98.15625 99.691368 98.15625 100.37891 C 98.15625 101.06641 98.392162 101.62891 98.679688 101.62891 C 98.967208 101.62891 100.23283 101.96248 101.49219 102.37109 L 103.05273 102.87891 L 103.00977 102.87891 L 103.91406 104.3418 L 104.81641 105.80273 L 102.62109 104.96094 C 97.594032 103.03187 94.070645 102.64588 88.765625 103.44141 C 82.381429 104.39878 81.015848 106.36781 87.21875 105.67188 L 91.28125 105.21484 L 93.78125 107.13281 L 96.28125 109.04883 L 89.40625 109.27539 L 82.53125 109.50391 L 86.28125 110.125 L 90.03125 110.74414 L 86.90625 111.58594 L 83.78125 112.42773 L 84.003906 114.82227 C 84.126366 116.13961 83.563866 117.66439 82.753906 118.21094 L 81.28125 119.20508 L 85.03125 118.42773 L 88.78125 117.65234 L 83.78125 120.85156 C 78.530386 124.2117 79.028081 125.32835 84.40625 122.25391 C 86.125 121.27138 88.301214 120.44823 89.242188 120.42383 L 90.953125 120.37891 L 87.693359 124.6543 L 84.431641 128.92969 L 85.982422 129.5 L 87.53125 130.07031 L 84.09375 130.98438 C 82.203125 131.48743 80.65625 132.69944 80.65625 133.67773 C 80.65625 134.65603 79.8125 135.78006 78.78125 136.17578 C 77.75 136.57152 76.90625 137.45898 76.90625 138.14648 L 76.90625 139.39648 L 79.023438 138.58398 L 81.142578 137.77148 L 78.710938 140.49023 L 76.28125 143.21094 L 79.085938 142.33789 L 81.890625 141.46484 L 81.140625 143.42188 L 80.388672 145.37891 L 81.796875 145.37891 L 83.205078 145.37891 L 82.373047 148.68945 L 81.542969 152.00195 L 82.855469 151.18945 C 83.577619 150.74314 85.89127 147.3248 87.998047 143.5918 C 93.555679 133.74421 98.37541 128.77317 106.55078 124.45312 L 113.78125 120.63086 L 125.03125 119.12305 L 136.28125 117.61328 L 153.15625 118.07422 L 170.03125 118.53516 L 177.66797 121.41602 C 181.60272 122.90046 186.11541 125.39749 188.83594 125.87891 C 191.55646 126.36031 195.62894 127.33863 197.88672 128.05273 L 201.99219 129.35156 L 207.05664 136.20703 C 209.84212 139.97759 213.0536 145.69294 214.19336 148.9082 L 216.26562 154.75391 L 217.02344 149.12891 C 218.07475 141.32232 218.79376 146.49937 218.06445 156.62891 C 217.94071 158.34766 218.19992 161.58203 218.64062 163.81641 L 219.44336 167.87891 L 218.15039 167.87891 L 216.85938 167.87891 L 217.66797 171.31641 C 218.11314 173.20703 219.45609 176.44141 220.65039 178.50391 C 221.84467 180.56641 223.45391 185.06641 224.22852 188.50391 C 225.00313 191.94141 227.18808 199.65268 229.08398 205.64062 C 230.97988 211.6286 232.73481 215.59997 232.98242 214.46484 C 233.39644 212.56684 229.58585 192.15312 226.82617 181.48438 C 226.1831 178.99835 225.68892 175.90461 225.72852 174.60938 L 225.80078 172.25391 L 228.80859 178.50391 C 230.4632 181.94141 231.83683 186.86328 231.86133 189.44141 C 231.88583 192.01953 232.45127 194.12891 233.11719 194.12891 L 233.62695 194.12891 C 233.65495 192.64229 234.30441 191.06692 234.31641 189.58008 C 234.34171 186.45261 234.41539 183.41275 233.70117 180.28516 C 233.63097 180.38712 233.55228 180.48288 233.46484 180.57031 L 232.24219 181.79297 L 231.56641 179.21094 C 230.88194 176.59353 232.3046 175.75507 233.69531 177.78125 C 233.69535 177.74345 233.69527 177.70575 233.69531 177.66797 C 233.70031 173.39533 234.55135 169.38903 234.46875 165.11719 C 234.39135 161.11794 233.36906 156.85593 233.61133 152.86328 C 233.75135 150.55576 233.54594 148.19095 232.76562 146.33789 L 232.72852 146.99023 C 232.51026 150.74986 232.39155 150.92568 231.28711 149.13867 C 230.86559 148.45662 231.06169 146.93304 231.72266 145.75195 L 232.63086 144.13086 C 232.55766 142.98711 232.49275 141.84286 232.41797 140.69922 L 229.51758 137.79688 L 230.70508 136.11719 L 231.00977 133.90625 L 232.20117 135.35547 C 231.74222 133.88045 231.83028 132.74262 231.7168 131.34961 C 231.7158 131.33791 231.71389 131.32625 231.71289 131.31445 L 231.08008 131.38086 L 229.40625 133.18555 L 229.40625 131.70703 L 229.40625 130.23047 L 228.03125 131.08008 L 226.6582 131.92969 L 228.15625 129.12891 L 229.65625 126.32617 L 228.14844 127.25977 L 226.63867 128.19141 L 227.46094 125.60547 L 228.28125 123.01758 L 225.14844 120.96484 C 223.42572 119.83608 221.47737 119.24701 220.81836 119.6543 C 220.15934 120.0616 219.43177 119.95028 219.20117 119.4082 C 218.97057 118.86612 217.09375 118.74812 215.03125 119.14453 L 211.28125 119.86523 L 215.03125 122.07617 C 217.09375 123.29257 217.7455 123.9686 216.47852 123.57812 C 215.21152 123.18771 212.68027 122.50328 210.85352 122.05664 C 209.02675 121.61 204.56009 119.57826 200.92773 117.54297 L 194.32422 113.84375 L 192.60156 110.54883 C 191.65468 108.73681 189.16194 105.62083 187.0625 103.625 C 184.96307 101.62917 183.48111 99.615113 183.76953 99.148438 C 184.05795 98.681758 181.50819 95.554615 178.10156 92.199219 L 171.90625 86.097656 L 171.90625 87.847656 L 171.90625 89.595703 L 168.16992 86.015625 C 166.11459 84.046495 164.11895 82.748233 163.73633 83.130859 C 163.3537 83.513483 165.2383 85.568345 167.92383 87.695312 C 170.60935 89.822288 173.07669 91.292451 173.40625 90.962891 C 173.73581 90.633331 175.08105 91.632504 176.39453 93.183594 L 178.78125 96.003906 L 175.96875 93.623047 C 172.98305 91.095172 172.08895 92.392776 174.71875 95.4375 C 175.57812 96.432468 174.3125 95.49281 171.90625 93.349609 C 168.18675 90.036719 158.70082 83.616738 151.90625 79.8125 L 150.03125 78.761719 z M 110.08984 92.900391 C 110.8092 92.888811 114.46545 94.834004 118.21484 97.222656 C 121.96423 99.61131 124.46875 101.54975 123.78125 101.53125 C 123.09375 101.51275 121.40625 100.76781 120.03125 99.876953 C 118.65625 98.986093 115.5625 97.057591 113.15625 95.589844 C 110.75 94.122098 109.37049 92.912021 110.08984 92.900391 z M 116.63281 92.927734 C 117.22735 92.971564 119.03926 93.806969 121.90625 95.554688 C 126.29174 98.228071 144.40625 112.81414 144.40625 113.67188 C 144.40625 114.72262 143.05836 113.78541 134.87891 107.05273 C 130.15087 103.16097 123.78109 98.379723 120.72461 96.427734 C 117.11616 94.123225 115.86841 92.87138 116.63281 92.927734 z M 142.53125 96.003906 L 144.71875 97.71875 C 145.92187 98.662303 146.90625 99.64668 146.90625 99.90625 C 146.90625 100.93504 145.88101 100.2736 144.24805 98.191406 L 142.53125 96.003906 z M 101.31836 100.44531 C 101.91299 100.41271 103.11989 100.7976 104.40625 101.62891 L 106.28125 102.83984 L 104.64648 102.85938 L 103.44531 102.87305 L 101.90625 101.76562 C 100.74135 100.92768 100.72372 100.47791 101.31836 100.44531 z M 143.01758 103.08008 L 144.97461 103.36719 C 146.05118 103.5252 147.50748 104.23013 148.21094 104.93359 L 149.49023 106.21289 L 147.55273 106.21289 C 146.48765 106.21289 145.03136 105.50795 144.31641 104.64648 L 143.01758 103.08008 z M 183.00781 104.75391 L 184.5625 106.29492 C 185.41678 107.14283 185.80088 108.15225 185.41602 108.53711 C 185.03115 108.92197 184.33074 108.22692 183.86133 106.99414 L 183.00781 104.75391 z M 225.10547 127.87891 C 225.40865 127.87891 225.65625 128.44141 225.65625 129.12891 C 225.65625 129.81641 225.06206 130.37891 224.33398 130.37891 C 223.60591 130.37891 223.35635 129.81641 223.78125 129.12891 C 224.20615 128.44141 224.8023 127.87891 225.10547 127.87891 z M 222.78906 162.06641 C 222.84946 162.07761 222.92514 162.11161 223.01953 162.16992 C 223.77464 162.63661 224.97798 164.11251 225.69336 165.44922 C 227.59285 168.99845 226.29889 168.41818 223.79688 164.59961 C 222.76296 163.02163 222.36614 161.98775 222.78906 162.06641 z "
         style="fill:#777777;fill-opacity:1" />
      <path
         id="path4430"
         d="m 113.60292,85.000226 0.77148,1.25 c 0.4249,0.6875 1.3023,1.25 1.94922,1.25 0.64693,0 1.17578,-0.5625 1.17578,-1.25 0,-0.6875 -0.87545,-1.25 -1.94727,-1.25 z"
         style="fill:#777777;fill-opacity:1" />
      <path
         id="path4428"
         d="m 175.6244,88.125226 1.7168,2.1875 c 0.94356,1.203125 2.30163,2.1875 3.01953,2.1875 0.71785,0 1.0716,-0.158974 0.78515,-0.353515 -0.28647,-0.19454 -1.64648,-1.178915 -3.02148,-2.1875 z"
         style="fill:#777777;fill-opacity:1" />
      <path
         id="path4426"
         d="m 170.6244,89.375226 1.7168,2.1875 c 0.94356,1.203125 1.92794,2.1875 2.1875,2.1875 1.0288,0 0.36539,-1.027195 -1.7168,-2.660156 z"
         style="fill:#777777;fill-opacity:1" />
      <path
         id="path4424"
         d="m 177.07948,94.18382 c -0.89464,0.163904 5.10045,7.45354 10.97851,13.17773 3.09877,3.01766 5.92484,6.40077 6.2793,7.51758 0.35447,1.11681 2.194,2.99262 4.08984,4.16797 3.80048,2.35617 5.94297,2.56641 9.69727,0.95313 l 2.5,-1.07422 -2.1875,-0.0879 c -1.20313,-0.0483 -2.1875,-0.61049 -2.1875,-1.25 l 0,-1.16407 3.4375,1.0293 c 1.89062,0.56602 4.8695,1.59476 6.61914,2.28516 l 3.18164,1.25586 0.17188,-2.28907 c 0.0948,-1.25852 -0.74235,-3.02836 -1.85938,-3.93359 l -2.0293,-1.64648 0.9375,1.5625 0.93946,1.5625 -1.63672,-0.004 c -0.89995,-0.002 -2.76172,-1.6836 -4.13672,-3.73633 -2.81293,-4.19939 -4.55714,-5.17252 -10.10547,-5.63281 -2.12125,-0.17599 -5.07438,-0.97116 -6.5625,-1.76758 -5.2351,-2.80174 -2.63433,-0.0412 3.54297,3.75977 3.4375,2.11512 6.25,4.08992 6.25,4.38867 0,1.30831 -9.98557,-4.70983 -12.08789,-7.28516 -2.02028,-2.47485 -9.79607,-8.36088 -15.32617,-11.60156 -0.24778,-0.145198 -0.41331,-0.204456 -0.50586,-0.1875 z"
         style="fill:#777777;fill-opacity:1" />
      <path
         id="path4418"
         d="m 194.3744,97.361551 2.42773,1.945313 c 1.33453,1.069176 2.97385,1.943356 3.64454,1.943356 1.58817,0 0.87902,-0.57813 -2.94727,-2.400387 z"
         style="fill:#777777;fill-opacity:1" />
      <path
         id="path4414"
         d="m 178.1244,100.87327 6.83203,7.0625 c 3.75776,3.88493 7.03127,7.06446 7.27344,7.06446 1.39514,0 -5.37193,-7.67499 -9.37305,-10.63086 z"
         style="fill:#777777;fill-opacity:1" />
      <path
         id="path4412"
         d="m 74.972053,102.36937 -1.236328,0.76367 c -0.679625,0.42003 -1.236328,1.29449 -1.236328,1.9414 0,1.79805 0.897526,1.40185 1.728516,-0.76367 z"
         style="fill:#777777;fill-opacity:1" />
      <path
         id="path4408"
         d="m 205.9369,103.83812 -2.8125,0.0879 2.5,1.07422 c 1.375,0.59086 2.64062,1.11383 2.8125,1.16211 0.17187,0.0483 0.3125,-0.47461 0.3125,-1.16211 0,-0.6875 -1.26563,-1.21041 -2.8125,-1.16211 z"
         style="fill:#777777;fill-opacity:1" />
      <path
         id="path4406"
         d="m 79.895881,103.90452 c -0.434246,-0.0179 -0.929687,0.0617 -1.380859,0.24219 l -1.640625,0.65625 2.396484,0.0977 c 1.317707,0.0543 2.055988,-0.24089 1.640625,-0.65625 -0.207683,-0.20769 -0.58138,-0.32196 -1.015625,-0.33985 z"
         style="fill:#777777;fill-opacity:1" />
      <path
         id="path4404"
         d="m 211.05018,105.00023 c -1.37653,0 -1.32904,0.52073 0.40039,4.3164 1.23457,2.70964 3.54883,4.41629 3.54883,2.61719 0,-1.59479 -3.04056,-6.93359 -3.94922,-6.93359 z"
         style="fill:#777777;fill-opacity:1" />
      <path
         id="path4398"
         d="m 74.802131,121.65062 c -0.380859,-0.0203 -1.271484,0.2977 -2.302734,0.84961 -1.375,0.73588 -2.5,1.61914 -2.5,1.96289 0,0.34375 1.125,0.023 2.5,-0.71289 1.375,-0.73588 2.5,-1.61914 2.5,-1.96289 0,-0.0859 -0.07031,-0.12996 -0.197266,-0.13672 z"
         style="fill:#777777;fill-opacity:1" />
      <path
         id="path4394"
         d="m 65.43885,139.43968 -0.775391,2.96094 -0.773437,2.95898 1.320313,-1.32031 c 0.726382,-0.72638 1.074038,-2.05914 0.773437,-2.96094 z"
         style="fill:#777777;fill-opacity:1" />
      <path
         id="path4390"
         d="m 226.40174,222.44554 -0.87109,2.52734 c -0.45385,1.31782 -1.84112,2.70313 -0.0625,2.70313 1.38221,0 2.34017,-2.48829 1.57812,-3.97461 z"
         style="fill:#777777;fill-opacity:1" />
      <path
         id="path4388"
         d="m 67.696663,254.37523 -0.09766,2.39648 c -0.05428,1.3177 0.240885,2.05599 0.65625,1.64063 0.41537,-0.41537 0.460699,-1.49415 0.09961,-2.39649 z"
         style="fill:#777777;fill-opacity:1" />
      <path
         id="path4386"
         transform="translate(-5.6568535,2.1213203)"
         d="M 155.25195 253.94727 C 152.95262 254.00087 150.95389 254.26209 149.4043 254.75391 L 146.77539 255.58984 L 148.08008 257.16211 C 148.79779 258.02692 149.08814 259.03101 148.72461 259.39453 C 148.36109 259.75806 148.73691 261.53421 149.56055 263.3418 L 151.05859 266.62891 L 153.98242 266.62891 C 155.59081 266.62891 156.90625 266.06641 156.90625 265.37891 C 156.90625 263.95887 161.00753 263.76166 166.73047 264.90625 C 168.86775 265.33371 170.31066 266.17746 169.9375 266.78125 C 169.56434 267.38505 170.34829 267.87891 171.67969 267.87891 C 175.27737 267.87891 176.53225 270.21001 177.26562 278.25 L 177.92773 285.49414 L 176.16797 284.0332 L 174.40625 282.57227 L 174.40625 285.36523 L 174.40625 288.15625 L 169.79492 287.29102 L 165.18359 286.42578 L 166.82227 288.40234 L 168.46289 290.37891 L 165.91211 290.37891 C 161.87007 290.37891 159.40742 291.72541 159.38672 293.94922 L 159.36914 296.00391 L 158.45117 294.75391 C 157.94607 294.06641 156.80484 293.35552 155.91602 293.17383 L 154.29883 292.84375 L 155.64648 295.36133 L 156.99414 297.87891 L 155.79102 297.87891 C 155.12845 297.87891 153.77809 297.07103 152.79102 296.08398 L 150.99609 294.28906 L 149.52539 295.76172 L 148.05273 297.23242 L 146.77344 295.36914 L 145.49219 293.50391 L 146.22852 296.14062 L 146.96289 298.77539 L 144.82031 300.51562 L 142.67773 302.25391 L 143.5625 300.77734 C 144.04943 299.96547 143.87644 298.94745 143.17773 298.51562 L 141.90625 297.73047 L 141.90625 300.54297 L 141.90625 303.35742 L 140.13281 300.92969 L 138.35742 298.50391 L 135.13281 301.5332 L 131.90625 304.56445 L 131.90625 307.54492 C 131.90625 308.35151 131.79232 309.01332 131.61133 309.43945 C 131.90096 309.22699 132.40033 309.42855 133.01953 310.17578 L 134.16797 311.55664 L 133.83008 309.48242 L 133.49414 307.4043 L 134.5332 307.99414 L 135.02344 308.26953 C 134.8607 308.07596 134.68701 307.88392 134.54492 307.69531 C 134.51922 307.66121 134.49465 307.6296 134.46875 307.5957 L 135.20117 304.31836 L 137.16406 305.46875 C 138.9862 306.53777 141.29879 308.79099 142.30273 310.47461 C 143.42786 312.36149 143.92079 313.59037 143.7832 313.98438 C 143.67617 314.29082 143.18828 314.08991 142.31641 313.30273 C 141.61569 312.67006 140.2081 312.44804 139.18945 312.80469 C 138.17087 313.16136 137.8503 313.11754 138.47656 312.70898 L 139.61328 311.9668 L 137.96094 311 C 137.39472 310.66894 136.59105 309.95544 135.82617 309.16211 L 135.13086 312.45898 L 134.74414 312.32812 L 132.4043 311.54297 L 133.20117 314.13281 C 134.07817 316.98572 133.78514 318.64954 132.84961 316.13086 C 132.52723 315.26296 131.79634 314.65927 131.22461 314.79102 C 130.65285 314.92276 130.67495 314.73862 131.27344 314.37891 C 131.87193 314.01913 132.06864 312.93759 131.71094 311.97461 C 131.33445 310.96103 131.27377 310.20071 131.41992 309.76562 C 131.26229 309.95441 131.07749 310.01337 130.87891 309.89062 C 130.31405 309.54152 128.86913 310.40736 127.66602 311.8125 C 126.4629 313.21764 125.13698 314.02562 124.7207 313.60938 C 124.30443 313.19308 125.61067 311.05251 127.62305 308.85156 C 129.63543 306.65061 130.29688 305.60028 129.09375 306.51758 L 126.90625 308.18555 L 126.90625 306.62891 L 126.90625 305.07227 L 124.79688 306.78906 L 122.68945 308.50391 L 123.50781 306.31641 C 124.50951 303.64356 122.78036 303.44495 120.66797 305.99023 C 119.81839 307.01392 118.48465 307.48547 117.70312 307.03906 C 116.92168 306.59265 116.69932 306.6874 117.20898 307.25 C 117.71864 307.81259 117.5079 309.02854 116.74219 309.95117 C 114.52008 312.62864 116.56645 311.88845 119.19922 309.0625 L 121.58984 306.49805 L 122.19336 309.65039 L 122.79492 312.80273 L 121.72656 312.14258 C 121.13837 311.77907 120.65625 312.35787 120.65625 313.42969 C 120.65625 314.50152 120.0345 315.37891 119.27344 315.37891 L 117.88867 315.37891 L 118.60938 313.50391 C 119.5545 311.04095 119.10797 311.13525 115.65625 314.12891 C 114.07086 315.50391 113.42214 316.62891 114.21484 316.62891 L 115.65625 316.62891 L 115.65625 320.46875 C 115.65625 324.25832 118.38706 328.48207 119.875 326.99414 C 120.01588 326.85326 120.27317 326.83877 120.59375 326.91211 L 123.16211 326.09375 L 127.37695 324.75195 L 127.93359 327.70508 L 128.47656 330.61328 C 128.48656 330.61528 128.49606 330.61714 128.50586 330.61914 L 129.70117 328.12109 L 130.91406 325.58398 L 131.72266 326.83984 C 132.16686 327.53076 131.88318 328.52436 131.09375 329.04688 L 129.6582 329.99805 L 132.3418 329.35352 L 135.02539 328.70703 L 135.49805 326.01367 L 135.9707 323.31641 L 136.32227 325.55273 L 136.67383 327.78516 L 138.63672 327.09375 L 140.59766 326.39844 L 141.44336 328.79297 C 141.90831 330.10918 142.77915 331.41937 143.37695 331.70508 L 144.46289 332.22461 L 144.33203 329.37109 L 144.20117 326.51953 L 145.51758 327.51367 C 146.24116 328.06088 146.96574 329.1951 147.125 330.0332 L 147.41406 331.55664 L 148.31445 329.71094 C 149.29209 327.71344 152.09527 327.55972 155.74219 329.30273 L 158.04492 330.40234 L 157.41602 327.91211 L 156.78906 325.42188 L 160.57812 328.19141 L 162.33203 329.47461 L 163.95703 328.73242 C 164.19617 327.80314 164.02484 326.8915 163.48828 326.55469 C 162.84533 326.15105 163.03508 326.00058 163.9082 326.21875 C 164.78137 326.4369 165.93782 325.62172 166.47852 324.40625 C 167.82291 321.38412 169.54143 321.10694 169.30078 323.95117 L 169.10352 326.2793 L 170.66797 324.05664 L 172.23438 321.83398 L 172.65625 323.33203 L 173.07812 324.83008 L 173.49609 324.27344 L 173.32422 323.47266 C 172.97636 321.86143 173.15712 320.08857 173.72461 319.5332 L 174.75586 318.52148 L 175.48047 320.00781 L 176.20508 321.49219 L 176.15039 319.41992 C 176.1213 318.27963 175.79531 317.12526 175.42383 316.85547 C 175.05233 316.58567 175.18623 316.17141 175.7207 315.9375 C 176.25518 315.70358 177.19301 316.01467 177.80469 316.62891 L 178.50977 317.33789 L 179.19531 316.19922 L 181.48047 312.41016 L 183.8457 314.26562 L 186.21094 316.12109 L 185.44727 313.41211 L 184.6875 310.70508 L 186.12305 311.11719 C 186.91258 311.34372 187.35442 312.27608 187.10547 313.18945 L 186.6543 314.85156 L 188.24609 312.59766 L 189.83789 310.3418 L 188.41797 308.00391 L 186.99414 305.66602 L 188.73242 307.11328 L 190.46875 308.56055 L 191.48828 306.74609 L 192.50586 304.93164 L 194.71875 306.17383 C 195.82972 306.79705 197.18406 307.18871 197.89844 307.11719 C 198.19477 306.83187 198.48492 306.55851 198.7793 306.27344 L 197.27148 304.70508 L 195.29297 302.64648 L 196.93945 302.52539 C 197.84426 302.45969 199.13622 302.83429 199.80859 303.35938 L 200.88281 304.19922 C 200.91361 304.16892 200.94381 304.13958 200.97461 304.10938 L 200.49023 302.33203 C 199.90809 300.18567 201.91361 298.22325 205.80469 297.12891 L 208.26172 296.4375 L 206.14648 294.98047 L 204.0332 293.51953 L 208.70703 293.10547 L 211.80469 292.83008 C 212.28382 292.26803 212.68074 291.77621 213.00391 291.34766 L 212.625 290.00195 L 211.86914 287.31445 L 213.96094 288.24414 L 214.51758 288.49219 C 214.75991 288.01745 215.02533 287.58914 215.30273 287.21875 L 214.83789 286.00391 L 216.83398 285.4082 L 215.96875 285.39844 C 215.10938 285.38794 214.40625 284.7552 214.40625 283.99414 L 214.40625 282.61133 L 216.26562 283.32422 C 217.28867 283.71678 218.0422 283.63737 217.93945 283.14648 C 217.83669 282.65561 218.40656 280.66976 219.20508 278.73438 C 220.0036 276.79899 220.65625 274.09348 220.65625 272.72266 L 220.65625 270.23047 L 222.21875 271.02344 C 223.07813 271.45875 222.91761 271.06854 221.86133 270.1582 C 220.80506 269.24784 220.14135 267.51953 220.38867 266.31641 C 221.09199 262.89478 219.6814 263.73965 217.25781 268.19141 C 216.0414 270.42578 215.04306 274.50391 215.03906 277.25391 L 215.03125 282.25391 L 213.78125 282.04492 C 213.09375 281.93063 212.44725 283.25412 212.34375 284.98438 C 212.2403 286.71461 211.45477 288.77611 210.59766 289.56641 L 209.03906 291.00391 L 209.80859 288.81641 L 210.57812 286.62891 L 208.11719 286.62891 C 206.76377 286.62891 205.65625 287.2858 205.65625 288.08789 C 205.65625 288.88996 205.27329 289.16199 204.80469 288.69336 C 204.33607 288.22472 205.66206 286.02095 207.75 283.79688 C 209.83794 281.57281 211.90488 278.73244 212.34375 277.48438 L 213.14062 275.21484 L 210.79688 275.95898 L 208.45312 276.70312 L 207.71875 274.79102 C 207.31516 273.73928 206.3727 272.87891 205.62305 272.87891 C 204.8734 272.87891 204.50248 273.30078 204.80078 273.81641 C 205.09908 274.33203 204.89108 275.87891 204.33789 277.25391 L 203.33203 279.75391 L 203.24414 277.60547 L 203.15625 275.45703 L 201.42188 276.12305 C 200.46776 276.48917 199.34246 278.50835 198.92188 280.61133 L 198.1582 284.43555 L 196.48047 283.04297 C 195.55753 282.27701 194.38467 282.06651 193.875 282.57617 C 193.36534 283.08582 193.0855 282.94141 193.25195 282.25391 C 193.41838 281.56641 193.13674 280.05424 192.62695 278.89453 L 191.69922 276.78711 L 189.92773 277.4668 C 188.95338 277.8407 188.15625 277.5228 188.15625 276.76172 C 188.15625 276.00066 188.75639 275.37891 189.49023 275.37891 L 190.82617 275.37891 L 190.04297 272.56641 C 189.61306 271.01953 188.38895 267.69705 187.32227 265.18359 L 187.1543 264.78906 L 186.71875 264.82227 L 186.76172 263.86328 L 186.48242 263.20508 L 185.29297 260.92969 L 185.22852 261.00977 L 183.4668 263.20312 L 182.9668 261.79492 C 182.74674 261.17348 183.0328 260.47388 183.61133 260.05078 L 182.73633 259.61914 L 181.6582 259.21289 L 180.17969 259.2207 L 179.10156 261.73438 L 178.02344 264.25195 L 178.19336 261.99414 L 178.36328 259.74023 L 176.29492 259.96484 L 174.22656 260.19141 L 173.95117 257.66797 C 173.91157 257.30423 173.84216 256.93717 173.75586 256.58203 C 172.9585 256.36266 172.15879 256.17032 171.35938 255.97656 L 171.27148 256.44336 L 170.74609 259.25 L 169.69141 257.97852 C 169.15912 257.33655 168.75811 256.22614 168.72266 255.38672 C 168.32359 255.30402 167.92211 255.21255 167.52539 255.13672 L 167.47266 255.20117 C 166.11512 256.85879 163.49533 256.44179 160.48828 254.14648 C 159.70465 254.07818 158.93278 254.02173 158.1875 253.98828 L 158.20117 254.86719 L 158.24023 257.43359 L 155.25195 253.94727 z M 149.57227 255.52148 L 151.36523 256.20898 C 152.35081 256.58718 153.15625 257.67902 153.15625 258.63672 C 153.15625 261.33573 149.96231 260.68998 149.75586 257.94922 L 149.57227 255.52148 z M 219.37891 272.74805 L 218.63477 274.68945 C 217.80378 276.85497 216.90625 277.25116 216.90625 275.45312 C 216.90625 274.8062 217.46295 273.93174 218.14258 273.51172 L 219.37891 272.74805 z M 136.93945 307.1582 C 136.46339 307.1427 136.62088 307.83043 137.45312 308.87891 L 138.44727 310.13086 L 138.42773 309.00391 C 138.41613 308.38444 138.05402 307.67077 137.625 307.41992 C 137.3269 307.24562 137.09814 307.16337 136.93945 307.1582 z M 177.50781 324.47852 L 177.02734 324.90039 C 177.17911 324.81374 177.34228 324.72582 177.48828 324.64062 L 177.50781 324.47852 z M 173.78906 325.62695 C 173.7312 325.74758 173.68133 325.86184 173.62695 325.98047 L 173.82617 325.80078 L 173.78906 325.62695 z "
         style="fill:#777777;fill-opacity:1" />
      <path
         id="path4382"
         d="m 135.96229,258.45335 c -2.62019,0.0496 -6.31185,3.83092 -5.51172,5.91602 l 0.64258,1.67773 3.3457,-0.36719 c 5.38738,-0.59139 6.98188,-6.23213 2.03125,-7.18554 -0.1635,-0.0315 -0.33313,-0.0443 -0.50781,-0.041 z"
         style="fill:#777777;fill-opacity:1" />
      <path
         id="path4380"
         d="m 105.87831,259.72874 -1.97852,3.25977 c -1.08824,1.79351 -2.72609,3.26172 -3.63867,3.26172 l -1.658203,0 0.89062,-1.44336 0.892583,-1.44336 -1.335943,0.82617 c -0.735,0.45426 -1.58634,0.11952 -1.89062,-0.74414 -0.30429,-0.86366 -0.59823,0.878 -0.6543,3.87109 l -0.10156,5.44141 -2.146488,2.37109 -2.144531,2.3711 2.06836,0 c 2.281129,0 2.781599,1.91165 0.818359,3.125 -0.6875,0.4249 -1.25,1.61523 -1.25,2.64648 l 0,1.875 1.46289,-0.90234 1.46289,-0.9043 -0.79883,2.08008 c -0.439,1.14403 -0.31732,2.08008 0.26953,2.08008 1.95644,0 5.103523,-6.1129 5.103523,-9.91211 l 0,-3.75196 3.88086,-4.41796 c 3.58431,-4.08236 3.62061,-6.40491 0.0449,-2.85547 l -1.57422,1.5625 0.83399,-2.1875 c 0.45803,-1.20313 1.31779,-2.1875 1.91015,-2.1875 0.59237,0 0.72911,-0.90571 0.30469,-2.01172 z"
         style="fill:#777777;fill-opacity:1" />
      <path
         id="path4376"
         d="m 191.44667,279.37523 -0.0977,2.39648 c -0.0543,1.3177 0.24088,2.05599 0.65625,1.64063 0.41529,-0.41537 0.45875,-1.49415 0.0977,-2.39649 z"
         style="fill:#777777;fill-opacity:1" />
      <path
         id="path4374"
         d="m 148.71229,281.87523 -0.91797,1.39257 -0.91992,1.39063 -2.5,-0.89844 -2.5,-0.89844 -2.81055,3.25782 c -3.47896,4.0304 -3.59506,6.38086 -0.31445,6.38086 1.375,0 2.5,0.66825 2.5,1.48437 0,0.81613 1.6875,-0.13337 3.75,-2.10937 l 3.75,-3.59375 -0.0195,-3.20313 z"
         style="fill:#777777;fill-opacity:1" />
      <path
         id="path4372"
         d="m 131.39588,281.96703 c -0.39917,-0.0181 -0.88085,0.0351 -1.39648,0.16992 -2.70973,0.70861 -3.34198,3.44412 -1.11523,4.82032 l 1.38281,0.85547 -1.69531,1.09375 -1.69727,1.09375 1.875,1.23047 c 3.16975,2.08079 4.6509,1.44257 7.37695,-3.17774 1.44292,-2.44555 2.62305,-4.60146 2.62305,-4.79102 0,-0.6039 -4.29176,0.10589 -6.61523,1.09376 -1.23278,0.52413 -2.59281,0.6025 -3.02149,0.17382 -0.42869,-0.42868 0.15887,-0.77929 1.30469,-0.77929 1.14584,0 2.08203,-0.50968 2.08203,-1.13282 0,-0.38945 -0.43823,-0.62023 -1.10352,-0.65039 z"
         style="fill:#777777;fill-opacity:1" />
      <path
         id="path4370"
         d="m 102.90956,284.37524 -2.08008,1.71484 c -1.143813,0.94356 -2.080083,2.20919 -2.080083,2.8125 0,1.90936 1.11222,1.19386 2.662113,-1.71484 z"
         style="fill:#777777;fill-opacity:1" />
      <path
         id="path4368"
         d="m 103.85292,288.74047 c -1.2571,0.0972 -3.853523,3.03776 -3.853523,4.67578 l 0,1.86133 2.392583,-2.95117 c 1.31582,-1.62303 2.1742,-3.17157 1.90625,-3.44141 -0.11351,-0.1143 -0.26573,-0.15841 -0.44531,-0.14453 z"
         style="fill:#777777;fill-opacity:1" />
      <path
         id="path4366"
         d="m 104.01503,295.09203 c -0.48579,-0.0143 -1.21173,0.36125 -1.84766,1.00196 l -1.54297,1.55468 2.24219,-0.85351 c 1.23278,-0.46942 1.92587,-1.16983 1.54101,-1.55469 -0.0962,-0.0962 -0.23065,-0.14367 -0.39257,-0.14844 z"
         style="fill:#777777;fill-opacity:1" />
      <path
         id="path4364"
         d="m 102.31581,301.90453 c -0.38085,0.0419 -0.64844,0.52463 -0.64844,1.27539 0,2.10771 0.39352,2.29173 1.4043,0.65625 0.39554,-0.64 0.24038,-1.45929 -0.34375,-1.82031 -0.14604,-0.0902 -0.28517,-0.12529 -0.41211,-0.11133 z"
         style="fill:#777777;fill-opacity:1" />
      <path
         id="path4362"
         d="m 131.89393,302.97485 c 0.86903,0.0183 1.66048,1.29816 1.50977,3.29882 -0.10255,1.36146 -0.20693,2.46703 -0.23243,2.45704 -0.0256,-0.0105 -0.83145,-0.51546 -1.79101,-1.12305 l -1.74414,-1.10547 0.79883,-2.08008 c 0.38914,-1.01409 0.93757,-1.45827 1.45898,-1.44726 z"
         style="fill:#777777;fill-opacity:1" />
      <path
         id="path4360"
         d="m 96.249397,303.75024 0,2.08398 0,2.08203 0.9375,-1.13086 c 0.51563,-0.62222 1.5,-1.55136 2.1875,-2.06445 l 1.250003,-0.93359 -2.187503,-0.0176 z"
         style="fill:#777777;fill-opacity:1" />
      <path
         id="path4358"
         d="m 100.23963,306.41235 c -0.357983,-0.10477 -0.21482,0.94945 0.53907,2.91406 0.42869,1.11712 1.0434,1.76715 1.36523,1.44531 0.32184,-0.32184 -0.0126,-1.61054 -0.74219,-2.86523 -0.55258,-0.95026 -0.94731,-1.43129 -1.16211,-1.49414 z"
         style="fill:#777777;fill-opacity:1" />
      <path
         id="path4356"
         d="m 104.33338,313.07836 c -0.22608,-0.0842 -0.38671,0.63281 -0.38671,1.92188 0,1.71875 0.28408,2.42187 0.63086,1.5625 0.34677,-0.85938 0.34677,-2.26563 0,-3.125 -0.0867,-0.21485 -0.16878,-0.3313 -0.24415,-0.35938 z"
         style="fill:#777777;fill-opacity:1" />
      <path
         id="path4354"
         d="m 100.6244,316.87524 1.7168,2.1875 c 1.63296,2.08219 2.6582,2.74364 2.6582,1.71484 0,-0.25956 -0.98437,-1.24394 -2.1875,-2.1875 z"
         style="fill:#777777;fill-opacity:1" />
      <path
         id="path4305"
         d="m 106.10096,320.62524 0.85352,2.24023 c 0.46941,1.23278 1.16983,1.92783 1.55469,1.54297 0.38486,-0.38487 7.5e-4,-1.39426 -0.85352,-2.24219 z"
         style="fill:#777777;fill-opacity:1" />
      <path
         inkscape:connector-curvature="0"
         id="path4228"
         d="m 168.7494,182.12327 -0.58008,0.11524 0.46485,1.9414 -1.1504,-0.57226 c -0.40697,-0.20266 -0.83662,-0.59269 -1.16406,-1.00586 l -1.54687,0.30469 c -0.70087,1.08366 -2.42069,1.40016 -4.75586,0.88867 -0.78208,0.1673 -1.41986,0.36762 -1.94727,0.57812 l 0.26367,0.56836 0.83789,1.79883 -3.0371,-1.45508 c -0.31588,0.14585 -0.61511,0.25967 -0.9375,0.30664 l -2.70704,0.10742 -0.52929,0.22461 -0.49024,1.8086 -0.8789,-1.22656 -0.2461,0.10546 c -0.93116,0.39654 -0.49963,0.8809 -0.17773,1.50977 l 0.95703,0.86523 1.13672,-0.19335 c 0.82951,-0.25893 5.66374,-1.63786 12.61133,-2.03516 l 7.57031,-1.07617 2.91211,-0.28711 -0.56055,-1.56641 -0.40234,-1.11719 c -0.22638,-0.0458 -0.52089,-0.1242 -0.70313,-0.15039 l -0.125,-0.0117 -0.76172,0.43165 -1.39843,0.79492 -0.875,-1.49414 -1.7793,-0.15821 z m 6.60156,0.79102 0.006,0.45312 0.0254,2.02539 2.51758,-0.24804 c 11.71944,2.51891 2.35097,-1.00726 -2.54883,-2.23047 z"
         style="fill:#777777;fill-opacity:1" />
      <path
         id="path4230"
         transform="translate(-5.6568535,2.1213203)"
         d="M 119.25195 179.06836 C 118.66641 179.57732 117.80189 179.72269 116.74805 179.51367 L 114.01758 180.2168 C 113.54784 180.23615 113.1285 180.23346 112.67188 180.24414 L 112.83203 181.23242 L 111.72656 180.26172 C 107.2806 180.3269 103.62241 180.17248 102.38867 181.38086 L 101.47656 182.27344 L 102.08398 182.625 C 102.41828 182.81799 105.28126 182.04549 107.35352 181.76367 L 111.30859 182.32422 L 120.33984 183.49219 C 125.90162 184.33988 130.97273 185.24641 131.60742 185.50781 L 131.70898 185.21875 L 133.92578 185.30469 C 134.27333 184.85372 134.61381 183.66897 133.96875 183.19727 L 133.12109 182.57812 L 132.83984 183.04883 L 132.4375 182.28516 L 129.46094 181.86328 L 129.32422 182.375 L 128.7793 184.4082 L 128.6582 182.66797 L 128.57812 181.54297 C 128.35993 181.4197 128.10417 181.26078 127.84375 181.09766 L 126.9707 181.3125 L 125.4082 181.69727 L 124.92773 179.8457 C 124.70013 179.78519 124.48286 179.72186 124.22461 179.66797 L 122.70898 179.48438 L 122.63281 181.33398 L 121.68164 180.47266 C 121.36201 180.18276 121.07101 179.72352 120.86719 179.26172 L 119.25195 179.06836 z "
         style="fill:#777777;fill-opacity:1" />
      <path
         style="fill:#777777;fill-opacity:1"
         d="m 159.74132,320.9638 c -0.16188,-0.40468 0.4169,-1.66699 1.74061,-3.605 1.18113,-1.72923 3.90152,-4.04434 6.04526,-5.14232 l 2.30976,-1.18139 0.86236,3.36615 c -0.0305,0.0348 -0.0609,0.0673 -0.0912,0.1023 -0.16716,0.19372 -0.37071,0.39256 -0.56217,0.59138 l 0.57604,-0.28453 1.22325,-0.60584 -0.39579,2.13542 -0.39614,2.13094 1.34969,-1.41861 c 0.8243,-0.86837 1.46944,-1.0217 1.77914,-0.65021 0.30971,0.37148 0.28423,1.26726 -0.23892,2.49685 -0.42084,0.98907 -0.18917,2.10037 0.51495,2.4699 0.70416,0.36947 0.7302,0.55907 0.0575,0.42376 -0.67264,-0.13532 -1.53382,0.48481 -1.9131,1.37622 -1.10065,2.58692 -1.44338,0.87694 -0.4116,-2.05326 l 0.93622,-2.65992 -2.75184,0.80746 -0.45534,0.13486 -0.81756,-3.3867 c -0.89988,0.81482 -1.84709,1.54703 -2.51324,1.88706 l -1.94398,0.9923 1.33833,0.76224 c 0.73679,0.41964 0.35922,0.46473 -0.83913,0.0984 -1.19844,-0.36631 -2.85374,-0.13639 -3.67813,0.51342 -1.02575,0.8085 -1.59906,1.01401 -1.72498,0.69926 z m 6.27736,-3.95716 1.16905,-1.28691 c 1.30552,-1.43585 1.2008,-2.21403 -0.20205,-1.49795 -0.50474,0.25764 -0.93009,0.99108 -0.94371,1.62733 l -0.0233,1.15753 z"
         id="path4494"
         inkscape:connector-curvature="0" />
    </g>
  </g>
</svg>
